HIERARCHY
ROOT root
{
	OFFSET 0.000000 0.000000 0.000000
	CHANNELS 6 Xposition Yposition Zposition Zrotation Yrotation Xrotation
	JOINT lhip
	{
		OFFSET 0.058581 -0.082280 -0.017664
		CHANNELS 3 Zrotation Yrotation Xrotation
		JOINT lknee
		{
			OFFSET 0.043451 -0.386469 0.008037
			CHANNELS 3 Zrotation Yrotation Xrotation
			JOINT lankle
			{
				OFFSET -0.014790 -0.426874 -0.037428
				CHANNELS 3 Zrotation Yrotation Xrotation
				JOINT ltoe
				{
					OFFSET 0.041054 -0.060286 0.122042
					CHANNELS 3 Zrotation Yrotation Xrotation
					End Site
					{
						OFFSET 0.000000 0.000000 0.000000
					}
				}
			}
		}
	}
	JOINT rhip
	{
		OFFSET -0.060310 -0.090513 -0.013543
		CHANNELS 3 Zrotation Yrotation Xrotation
		JOINT rknee
		{
			OFFSET -0.043257 -0.383688 -0.004843
			CHANNELS 3 Zrotation Yrotation Xrotation
			JOINT rankle
			{
				OFFSET 0.019056 -0.420046 -0.034562
				CHANNELS 3 Zrotation Yrotation Xrotation
				JOINT rtoe
				{
					OFFSET -0.034840 -0.062106 0.130323
					CHANNELS 3 Zrotation Yrotation Xrotation
					End Site
					{
						OFFSET 0.000000 0.000000 0.000000
					}
				}
			}
		}
	}
	JOINT lowerback
	{
		OFFSET 0.004439 0.124404 -0.038385
		CHANNELS 3 Zrotation Yrotation Xrotation
		JOINT upperback
		{
			OFFSET 0.004488 0.137956 0.026820
			CHANNELS 3 Zrotation Yrotation Xrotation
			JOINT chest
			{
				OFFSET -0.002265 0.056032 0.002855
				CHANNELS 3 Zrotation Yrotation Xrotation
				JOINT lowerneck
				{
					OFFSET -0.013390 0.211636 -0.033468
					CHANNELS 3 Zrotation Yrotation Xrotation
					JOINT upperneck
					{
						OFFSET 0.010113 0.088937 0.050410
						CHANNELS 3 Zrotation Yrotation Xrotation
						End Site
						{
							OFFSET 0.000000 0.000000 0.000000
						}
					}
				}
				JOINT lclavicle
				{
					OFFSET 0.071702 0.114000 -0.018898
					CHANNELS 3 Zrotation Yrotation Xrotation
					JOINT lshoulder
					{
						OFFSET 0.122921 0.045205 -0.019046
						CHANNELS 3 Zrotation Yrotation Xrotation
						JOINT lelbow
						{
							OFFSET 0.255332 -0.015649 -0.022946
							CHANNELS 3 Zrotation Yrotation Xrotation
							JOINT lwrist
							{
								OFFSET 0.265709 0.012698 -0.007375
								CHANNELS 3 Zrotation Yrotation Xrotation
								End Site
								{
									OFFSET 0.000000 0.000000 0.000000
								}
							}
						}
					}
				}
				JOINT rclavicle
				{
					OFFSET -0.082954 0.112472 -0.023707
					CHANNELS 3 Zrotation Yrotation Xrotation
					JOINT rshoulder
					{
						OFFSET -0.113228 0.046853 -0.008472
						CHANNELS 3 Zrotation Yrotation Xrotation
						JOINT relbow
						{
							OFFSET -0.260127 -0.014369 -0.031269
							CHANNELS 3 Zrotation Yrotation Xrotation
							JOINT rwrist
							{
								OFFSET -0.269108 0.006794 -0.006027
								CHANNELS 3 Zrotation Yrotation Xrotation
								End Site
								{
									OFFSET 0.000000 0.000000 0.000000
								}
							}
						}
					}
				}
			}
		}
	}
}
MOTION
Frames: 13
Frame Time: 0.033333
-0.002831 0.691028 1.036697 -3.297148 -0.249360 85.177390 12.792201 8.213799 2.013610 -1.506182 11.248517 11.661717 -0.650286 15.889442 -18.167215 0.000000 -0.000000 0.000000 -11.656496 -6.640550 -1.139133 1.038928 -7.189757 13.037868 6.658660 -4.445882 -9.435417 0.000000 -0.000000 0.000000 0.044145 0.056937 2.583685 1.242812 -1.060766 2.273024 -3.125094 -0.507067 2.945490 5.322908 2.763344 8.696520 -4.538203 -5.420953 36.386722 -35.803684 4.121003 1.685368 -44.486882 -11.147455 11.768394 9.148352 -63.235632 16.771230 12.618242 -16.181625 14.949078 37.867766 -0.081241 2.225589 43.280215 8.741820 16.826689 -12.899510 59.182587 4.393008 -15.630757 11.609949 3.345483 
-0.003696 0.691939 1.036346 -3.684870 -0.067096 85.392482 13.154417 8.613690 1.959364 -1.590480 11.752477 11.813068 -0.705744 15.408042 -18.165714 0.000000 -0.000000 0.000000 -11.410193 -7.282024 -1.640062 0.951322 -6.755589 13.453933 6.792709 -3.887990 -9.406468 0.000000 -0.000000 0.000000 0.316019 0.358575 2.366972 1.076089 -1.102422 2.772190 -3.148530 0.059190 2.410488 5.528857 2.469772 8.529734 -4.450165 -5.658043 37.018746 -35.300611 3.266689 1.696963 -45.009417 -10.505972 11.863665 9.918532 -63.202185 15.765558 11.498579 -16.411482 15.216865 37.239001 1.950280 3.353727 44.284713 7.396227 16.303524 -17.814824 59.299739 -0.885004 -11.784906 13.528622 5.967259 
-0.004111 0.692552 1.036082 -3.740994 -0.004668 85.421333 13.267277 8.708662 1.961737 -1.621664 11.797718 11.850863 -0.765964 15.324260 -18.162463 0.000000 -0.000000 0.000000 -11.326304 -7.428351 -1.774348 0.889576 -6.716662 13.595109 6.810776 -3.658200 -9.421450 0.000000 -0.000000 0.000000 0.434917 0.430605 2.403973 1.055878 -1.136335 2.729532 -3.187059 -0.013853 2.377685 5.571890 2.614080 8.517055 -4.466561 -5.480826 37.088634 -35.413536 3.177294 1.777018 -44.899020 -10.497370 11.821698 10.148543 -63.021364 15.530402 11.789657 -16.530317 15.137596 37.059222 1.854171 3.362204 44.660838 7.561385 16.310572 -17.425556 59.360969 -0.319238 -11.918548 13.410586 5.693057 
-0.004192 0.692734 1.036028 -3.730093 0.006617 85.403057 13.287081 8.700501 1.957216 -1.622941 11.820707 11.891462 -0.760627 15.304892 -18.180061 0.000000 -0.000000 0.000000 -11.311717 -7.443314 -1.778142 0.872725 -6.729633 13.622729 6.804513 -3.629663 -9.413121 0.000000 -0.000000 0.000000 0.457418 0.448692 2.478845 1.053608 -1.140856 2.669223 -3.190093 -0.040401 2.366628 5.568185 2.572691 8.484569 -4.495275 -5.436890 37.105822 -35.394483 3.191553 1.781778 -44.934196 -10.516501 11.786745 10.136374 -62.995231 15.550030 11.771005 -16.518127 15.140483 36.999024 1.849663 3.365881 44.778706 7.535083 16.342967 -17.425002 59.396459 -0.264721 -11.962591 13.337678 5.574392 
-0.004207 0.692791 1.036023 -3.720418 0.005450 85.394267 13.289880 8.701662 1.960979 -1.626805 11.811832 11.893315 -0.752684 15.298265 -18.182453 0.000000 -0.000000 0.000000 -11.312156 -7.452606 -1.768987 0.871771 -6.729480 13.627448 6.802250 -3.627665 -9.409389 0.000000 -0.000000 0.000000 0.464510 0.452148 2.494314 1.056404 -1.142491 2.650998 -3.185069 -0.045369 2.355950 5.555819 2.564996 8.482075 -4.504288 -5.427208 37.123098 -35.386999 3.191876 1.782252 -44.938815 -10.511247 11.779052 10.133303 -62.993068 15.550622 11.769538 -16.507488 15.136876 36.986651 1.852921 3.373781 44.794903 7.527233 16.344996 -17.411695 59.405095 -0.250862 -11.950403 13.321828 5.557473 
-0.004219 0.692908 1.036028 -3.702263 0.008908 85.381669 13.302428 8.713311 1.966506 -1.639965 11.796348 11.893062 -0.735735 15.288717 -18.183912 0.000000 -0.000000 0.000000 -11.309882 -7.470981 -1.755859 0.871120 -6.729383 13.619421 6.796624 -3.621274 -9.405753 0.000000 -0.000000 0.000000 0.472804 0.453874 2.524398 1.056398 -1.156703 2.629125 -3.181645 -0.061646 2.342199 5.544585 2.552543 8.486814 -4.511089 -5.401233 37.152095 -35.372895 3.192518 1.801227 -44.946967 -10.500722 11.753699 10.156818 -63.001043 15.529759 11.782033 -16.478927 15.143151 36.960214 1.860458 3.389387 44.831795 7.510330 16.348719 -17.376038 59.405084 -0.204597 -11.937528 13.295241 5.522810 
-0.004242 0.693084 1.036045 -3.668306 0.032690 85.380000 13.336510 8.717863 1.947035 -1.655081 11.800714 11.903665 -0.715419 15.284934 -18.144418 0.000000 -0.000000 0.000000 -11.282608 -7.492818 -1.748314 0.865715 -6.741998 13.601953 6.781291 -3.618649 -9.384899 0.000000 -0.000000 0.000000 0.496716 0.468466 2.557462 1.071894 -1.177702 2.602035 -3.175955 -0.061331 2.309527 5.526837 2.521296 8.481473 -4.522276 -5.397550 37.198664 -35.353233 3.186732 1.812723 -44.991035 -10.522845 11.740450 10.120929 -62.961672 15.540869 11.736739 -16.436346 15.102940 36.917525 1.852375 3.406974 44.860687 7.468688 16.345608 -17.325338 59.409521 -0.024665 -11.840164 13.424305 5.598272 
-0.004334 0.693512 1.035981 -3.639254 0.050036 85.409860 13.364277 8.732860 1.887570 -1.676737 11.793432 11.931721 -0.733971 15.228346 -18.161507 0.000000 -0.000000 0.000000 -11.262146 -7.486030 -1.810500 0.865148 -6.794204 13.620792 6.770720 -3.588280 -9.343252 0.000000 -0.000000 0.000000 0.495063 0.458620 2.605744 1.076306 -1.195407 2.555227 -3.165054 -0.070497 2.296084 5.562431 2.529031 8.445101 -4.505569 -5.411029 37.224774 -35.398113 3.139576 1.916527 -44.981172 -10.581799 11.681839 10.221206 -62.866764 15.399635 11.729822 -16.585100 15.123295 36.880629 1.889456 3.448869 44.935010 7.430838 16.359747 -17.333365 59.412983 0.235650 -11.843975 13.660073 5.711322 
-0.004415 0.693926 1.035938 -3.668932 0.051043 85.460967 13.364713 8.756982 1.824862 -1.688862 11.814131 11.937210 -0.769997 15.215023 -18.145668 0.000000 -0.000000 0.000000 -11.238793 -7.496202 -1.901433 0.855567 -6.737181 13.632572 6.773419 -3.573374 -9.323101 0.000000 -0.000000 0.000000 0.489211 0.467740 2.594311 1.063927 -1.187615 2.515720 -3.162432 -0.089652 2.306911 5.569378 2.498395 8.454015 -4.457832 -5.451648 37.219850 -35.412272 3.081116 1.950890 -44.950647 -10.583452 11.694582 10.264570 -62.759675 15.354953 11.871366 -16.585012 15.126775 36.873842 1.926907 3.471062 44.986883 7.451359 16.368164 -17.248623 59.399394 0.328845 -11.866711 13.566783 5.573338 
-0.004412 0.694261 1.035948 -3.668836 0.053415 85.456777 13.360530 8.758441 1.819600 -1.693776 11.797322 11.940465 -0.752155 15.197685 -18.155759 0.000000 -0.000000 0.000000 -11.254473 -7.520659 -1.866851 0.896885 -6.688223 13.549243 6.779931 -3.558770 -9.287026 0.000000 -0.000000 0.000000 0.501809 0.467754 2.621450 1.049451 -1.214586 2.481805 -3.160246 -0.084734 2.314427 5.567881 2.502276 8.511050 -4.463067 -5.405548 37.201265 -35.394144 3.064780 1.882076 -44.946044 -10.553967 11.679760 10.038354 -62.672424 15.496202 11.880793 -16.543375 15.151325 36.812018 1.925793 3.486040 45.086924 7.444400 16.354815 -17.197980 59.390076 0.368571 -11.877528 13.616223 5.644251 
-0.004416 0.694410 1.035970 -3.717157 0.048729 85.448885 13.351293 8.756272 1.842556 -1.702545 11.811994 11.913453 -0.733826 15.261629 -18.130889 0.000000 -0.000000 0.000000 -11.263566 -7.500396 -1.839195 0.927418 -6.668847 13.475870 6.756186 -3.573883 -9.262162 0.000000 -0.000000 0.000000 0.487969 0.473276 2.596036 1.038662 -1.199636 2.478600 -3.151266 -0.067165 2.337817 5.581242 2.509547 8.564134 -4.429569 -5.421124 37.176204 -35.376760 3.042208 1.924814 -44.928704 -10.542805 11.648678 9.972610 -62.621314 15.516633 11.804769 -16.474911 15.149967 36.790478 1.914430 3.500472 45.110276 7.416029 16.358257 -17.159114 59.404969 0.496756 -11.870620 13.677049 5.679520 
-0.004416 0.694648 1.036006 -3.709846 0.047511 85.456762 13.348962 8.779767 1.797830 -1.705653 11.806885 11.941197 -0.701275 15.254887 -18.104004 0.000000 -0.000000 0.000000 -11.261781 -7.506568 -1.842867 0.934212 -6.677916 13.435536 6.750835 -3.573284 -9.223483 0.000000 -0.000000 0.000000 0.467261 0.458275 2.596632 1.034793 -1.196722 2.430837 -3.140993 -0.043812 2.335303 5.591565 2.512748 8.596147 -4.428134 -5.481059 37.223924 -35.353488 3.019413 2.008333 -44.928760 -10.539764 11.629556 9.906520 -62.531064 15.599500 11.788576 -16.421250 15.200554 36.799690 1.891958 3.503146 45.108608 7.373601 16.350553 -17.178491 59.414320 0.554320 -11.899045 13.701097 5.743833 
-0.004440 0.695103 1.036014 -3.708232 0.039757 85.473375 13.348396 8.830846 1.755255 -1.710652 11.809094 11.961382 -0.670432 15.208786 -18.099313 0.000000 -0.000000 0.000000 -11.257515 -7.502030 -1.876653 0.908554 -6.704604 13.432103 6.755869 -3.543747 -9.188520 0.000000 -0.000000 0.000000 0.436633 0.417549 2.638218 1.019953 -1.182110 2.391947 -3.144991 -0.008214 2.337842 5.612402 2.492919 8.636108 -4.361410 -5.417747 37.150040 -35.317139 3.047264 1.991409 -44.932678 -10.549966 11.657268 9.733818 -62.484058 15.668035 11.811195 -16.335370 15.196064 36.824491 1.885706 3.388576 45.123281 7.323423 16.380590 -17.130554 59.447740 0.509951 -11.814725 13.746212 5.838466 
